# xmcd CD database file
#
# Track frame offsets:
#	150
#	16677
#	29472
#	38541
#	57806
#	70970
#	86697
#	101244
#	117704
#	137994
#	154788
#	171578
#
# Disc length: 2475 seconds
#
# Revision: 2
# Processed by: cddbd v1.4PL0 Copyright (c) Steve Scherf et al.
# Submitted via: CDex 1.40Release
#
DISCID=a509a90c
DTITLE=Keith Whitley - Don't Close Your Eyes
DYEAR=1988
DGENRE=Country
TTITLE0=Flying Colors
TTITLE1=It's All Coming Back To Me Now
TTITLE2=Lucky Dog
TTITLE3=Don't Close Your Eyes
TTITLE4=The Birmingham Turnaround
TTITLE5=Some Old Side Road
TTITLE6=Would These Arms Be In Your Way
TTITLE7=I'm No Stranger To The Rain
TTITLE8=I Never Go Around Mirrors
TTITLE9=When You Say Nothing At All
TTITLE10=A Day In The Life Of A Fool
TTITLE11=Honky Tonk Heart
EXTD=YEAR: 1988 ID3G: 2
EXTT0=
EXTT1=
EXTT2=
EXTT3=
EXTT4=
EXTT5=
EXTT6=
EXTT7=
EXTT8=
EXTT9=
EXTT10=
EXTT11=
PLAYORDER=
